<svg width="37" height="37" viewBox="0 0 37 37" fill="none" xmlns="http://www.w3.org/2000/svg">
<rect x="0.5" y="0.5" width="36" height="36" rx="2.5" fill="#F7F7F7" stroke="#C0CDD6"/>
<path d="M13.6943 11.29C13.6943 10.8561 13.7145 10.4323 13.7549 10.0186C13.7952 9.60482 13.8911 9.23649 14.0425 8.91357C14.2039 8.58057 14.436 8.31315 14.7388 8.11133C15.0415 7.90951 15.4603 7.80859 15.9951 7.80859C16.5703 7.80859 17.0194 7.90951 17.3423 8.11133C17.6652 8.31315 17.9023 8.58057 18.0537 8.91357C18.2051 9.23649 18.2959 9.60482 18.3262 10.0186C18.3665 10.4323 18.3867 10.8561 18.3867 11.29V24.5498H21.3535C21.7673 24.5498 22.1759 24.57 22.5796 24.6104C22.9832 24.6507 23.3415 24.7466 23.6543 24.8979C23.9772 25.0493 24.2345 25.2713 24.4263 25.564C24.618 25.8566 24.7139 26.2552 24.7139 26.7598C24.7139 27.2744 24.618 27.6831 24.4263 27.9858C24.2345 28.2785 23.9772 28.5005 23.6543 28.6519C23.3415 28.8032 22.9832 28.8991 22.5796 28.9395C22.1759 28.9798 21.7673 29 21.3535 29H17.0547C16.5199 29 16.0456 28.9798 15.6318 28.9395C15.2181 28.8991 14.8649 28.8032 14.5723 28.6519C14.2897 28.5005 14.0728 28.2785 13.9214 27.9858C13.77 27.6831 13.6943 27.2744 13.6943 26.7598V11.29Z" fill="#FF5D5D"/>
<circle cx="4.5" cy="4.5" r="1.5" fill="#C0CDD6"/>
<circle cx="32.5" cy="4.5" r="1.5" fill="#C0CDD6"/>
<circle cx="32.5" cy="32.5" r="1.5" fill="#C0CDD6"/>
<circle cx="4.5" cy="32.5" r="1.5" fill="#C0CDD6"/>
</svg>
